<mxfile host="app.diagrams.net" agent="Mozilla/5.0 (Windows NT 10.0; Win64; x64) AppleWebKit/537.36 (KHTML, like Gecko) Chrome/129.0.0.0 Safari/537.36" version="24.7.16">
  <diagram id="C5RBs43oDa-KdzZeNtuy" name="Page-1">
    <mxGraphModel dx="3217" dy="2412" grid="1" gridSize="10" guides="1" tooltips="1" connect="1" arrows="1" fold="1" page="1" pageScale="1" pageWidth="827" pageHeight="1169" math="0" shadow="0">
      <root>
        <mxCell id="WIyWlLk6GJQsqaUBKTNV-0" />
        <mxCell id="WIyWlLk6GJQsqaUBKTNV-1" parent="WIyWlLk6GJQsqaUBKTNV-0" />
        <mxCell id="ZAd-6QGFjv7Rye3IVCSr-4" style="edgeStyle=orthogonalEdgeStyle;rounded=0;orthogonalLoop=1;jettySize=auto;html=1;entryX=0.5;entryY=0;entryDx=0;entryDy=0;" parent="WIyWlLk6GJQsqaUBKTNV-1" source="ZAd-6QGFjv7Rye3IVCSr-0" target="ZAd-6QGFjv7Rye3IVCSr-2" edge="1">
          <mxGeometry relative="1" as="geometry" />
        </mxCell>
        <mxCell id="ZAd-6QGFjv7Rye3IVCSr-0" value="Check int. Systeme" style="rounded=1;whiteSpace=wrap;html=1;fontSize=12;glass=0;strokeWidth=1;shadow=0;" parent="WIyWlLk6GJQsqaUBKTNV-1" vertex="1">
          <mxGeometry x="160" y="-78" width="120" height="40" as="geometry" />
        </mxCell>
        <mxCell id="ZAd-6QGFjv7Rye3IVCSr-7" style="edgeStyle=orthogonalEdgeStyle;rounded=0;orthogonalLoop=1;jettySize=auto;html=1;entryX=0.5;entryY=0;entryDx=0;entryDy=0;" parent="WIyWlLk6GJQsqaUBKTNV-1" source="ZAd-6QGFjv7Rye3IVCSr-2" target="ZAd-6QGFjv7Rye3IVCSr-6" edge="1">
          <mxGeometry relative="1" as="geometry" />
        </mxCell>
        <mxCell id="ZAd-6QGFjv7Rye3IVCSr-2" value="Aufbau BT-Verbindung" style="rhombus;whiteSpace=wrap;html=1;shadow=0;fontFamily=Helvetica;fontSize=12;align=center;strokeWidth=1;spacing=6;spacingTop=-4;" parent="WIyWlLk6GJQsqaUBKTNV-1" vertex="1">
          <mxGeometry x="170" y="2" width="100" height="80" as="geometry" />
        </mxCell>
        <mxCell id="ZAd-6QGFjv7Rye3IVCSr-3" style="edgeStyle=orthogonalEdgeStyle;rounded=0;orthogonalLoop=1;jettySize=auto;html=1;" parent="WIyWlLk6GJQsqaUBKTNV-1" source="ZAd-6QGFjv7Rye3IVCSr-2" target="ZAd-6QGFjv7Rye3IVCSr-2" edge="1">
          <mxGeometry relative="1" as="geometry" />
        </mxCell>
        <mxCell id="ZAd-6QGFjv7Rye3IVCSr-5" value="nicht erfolgreich" style="text;html=1;align=center;verticalAlign=middle;whiteSpace=wrap;rounded=0;" parent="WIyWlLk6GJQsqaUBKTNV-1" vertex="1">
          <mxGeometry x="302" y="22" width="60" height="30" as="geometry" />
        </mxCell>
        <mxCell id="ZAd-6QGFjv7Rye3IVCSr-9" style="edgeStyle=orthogonalEdgeStyle;rounded=0;orthogonalLoop=1;jettySize=auto;html=1;entryX=0.5;entryY=0;entryDx=0;entryDy=0;" parent="WIyWlLk6GJQsqaUBKTNV-1" source="ZAd-6QGFjv7Rye3IVCSr-6" target="ZAd-6QGFjv7Rye3IVCSr-8" edge="1">
          <mxGeometry relative="1" as="geometry" />
        </mxCell>
        <mxCell id="ZAd-6QGFjv7Rye3IVCSr-6" value="Schlüsselaustausch (DH)" style="rounded=1;whiteSpace=wrap;html=1;fontSize=12;glass=0;strokeWidth=1;shadow=0;" parent="WIyWlLk6GJQsqaUBKTNV-1" vertex="1">
          <mxGeometry x="160" y="112" width="120" height="40" as="geometry" />
        </mxCell>
        <mxCell id="ZAd-6QGFjv7Rye3IVCSr-8" value="Überprüfung erfolg. verschlüs. Verb." style="rounded=1;whiteSpace=wrap;html=1;fontSize=12;glass=0;strokeWidth=1;shadow=0;" parent="WIyWlLk6GJQsqaUBKTNV-1" vertex="1">
          <mxGeometry x="160" y="182" width="120" height="40" as="geometry" />
        </mxCell>
        <mxCell id="ZAd-6QGFjv7Rye3IVCSr-27" style="edgeStyle=orthogonalEdgeStyle;rounded=0;orthogonalLoop=1;jettySize=auto;html=1;entryX=0.5;entryY=0;entryDx=0;entryDy=0;" parent="WIyWlLk6GJQsqaUBKTNV-1" source="ZAd-6QGFjv7Rye3IVCSr-10" target="ZAd-6QGFjv7Rye3IVCSr-12" edge="1">
          <mxGeometry relative="1" as="geometry" />
        </mxCell>
        <mxCell id="ZAd-6QGFjv7Rye3IVCSr-10" value="LED auf AN&lt;div&gt;Status set IDLE&lt;/div&gt;" style="rounded=1;whiteSpace=wrap;html=1;fontSize=12;glass=0;strokeWidth=1;shadow=0;" parent="WIyWlLk6GJQsqaUBKTNV-1" vertex="1">
          <mxGeometry x="160" y="258" width="120" height="40" as="geometry" />
        </mxCell>
        <mxCell id="ZAd-6QGFjv7Rye3IVCSr-16" style="edgeStyle=orthogonalEdgeStyle;rounded=0;orthogonalLoop=1;jettySize=auto;html=1;entryX=0.5;entryY=0;entryDx=0;entryDy=0;" parent="WIyWlLk6GJQsqaUBKTNV-1" source="ZAd-6QGFjv7Rye3IVCSr-12" target="ZAd-6QGFjv7Rye3IVCSr-15" edge="1">
          <mxGeometry relative="1" as="geometry" />
        </mxCell>
        <mxCell id="ZAd-6QGFjv7Rye3IVCSr-12" value="Status Übermittlung" style="rounded=1;whiteSpace=wrap;html=1;fontSize=12;glass=0;strokeWidth=1;shadow=0;" parent="WIyWlLk6GJQsqaUBKTNV-1" vertex="1">
          <mxGeometry x="160" y="338" width="120" height="40" as="geometry" />
        </mxCell>
        <mxCell id="ZAd-6QGFjv7Rye3IVCSr-19" style="edgeStyle=orthogonalEdgeStyle;rounded=0;orthogonalLoop=1;jettySize=auto;html=1;entryX=0;entryY=0.5;entryDx=0;entryDy=0;" parent="WIyWlLk6GJQsqaUBKTNV-1" source="ZAd-6QGFjv7Rye3IVCSr-15" target="ZAd-6QGFjv7Rye3IVCSr-21" edge="1">
          <mxGeometry relative="1" as="geometry">
            <mxPoint x="320" y="458" as="targetPoint" />
          </mxGeometry>
        </mxCell>
        <mxCell id="ZStzPt_jmqe4mK9C0tq1-114" style="edgeStyle=orthogonalEdgeStyle;rounded=0;orthogonalLoop=1;jettySize=auto;html=1;entryX=0.5;entryY=0;entryDx=0;entryDy=0;" parent="WIyWlLk6GJQsqaUBKTNV-1" source="ZAd-6QGFjv7Rye3IVCSr-15" target="ZStzPt_jmqe4mK9C0tq1-98" edge="1">
          <mxGeometry relative="1" as="geometry" />
        </mxCell>
        <mxCell id="ZAd-6QGFjv7Rye3IVCSr-15" value="Ack erhalten?" style="rhombus;whiteSpace=wrap;html=1;shadow=0;fontFamily=Helvetica;fontSize=12;align=center;strokeWidth=1;spacing=6;spacingTop=-4;" parent="WIyWlLk6GJQsqaUBKTNV-1" vertex="1">
          <mxGeometry x="170" y="418" width="100" height="80" as="geometry" />
        </mxCell>
        <mxCell id="ZAd-6QGFjv7Rye3IVCSr-18" value="ja" style="text;html=1;align=center;verticalAlign=middle;whiteSpace=wrap;rounded=0;" parent="WIyWlLk6GJQsqaUBKTNV-1" vertex="1">
          <mxGeometry x="148" y="498" width="60" height="30" as="geometry" />
        </mxCell>
        <mxCell id="ZAd-6QGFjv7Rye3IVCSr-20" value="nein" style="text;html=1;align=center;verticalAlign=middle;whiteSpace=wrap;rounded=0;" parent="WIyWlLk6GJQsqaUBKTNV-1" vertex="1">
          <mxGeometry x="263" y="423" width="60" height="30" as="geometry" />
        </mxCell>
        <mxCell id="ZAd-6QGFjv7Rye3IVCSr-23" style="edgeStyle=orthogonalEdgeStyle;rounded=0;orthogonalLoop=1;jettySize=auto;html=1;entryX=0;entryY=0.5;entryDx=0;entryDy=0;" parent="WIyWlLk6GJQsqaUBKTNV-1" source="ZAd-6QGFjv7Rye3IVCSr-21" target="ZAd-6QGFjv7Rye3IVCSr-22" edge="1">
          <mxGeometry relative="1" as="geometry" />
        </mxCell>
        <mxCell id="ZAd-6QGFjv7Rye3IVCSr-21" value="Retry 3x a 10 Sek" style="rounded=1;whiteSpace=wrap;html=1;fontSize=12;glass=0;strokeWidth=1;shadow=0;" parent="WIyWlLk6GJQsqaUBKTNV-1" vertex="1">
          <mxGeometry x="320" y="438" width="120" height="40" as="geometry" />
        </mxCell>
        <mxCell id="ZAd-6QGFjv7Rye3IVCSr-30" style="edgeStyle=orthogonalEdgeStyle;rounded=0;orthogonalLoop=1;jettySize=auto;html=1;entryX=0;entryY=0.5;entryDx=0;entryDy=0;" parent="WIyWlLk6GJQsqaUBKTNV-1" source="ZAd-6QGFjv7Rye3IVCSr-22" target="ZAd-6QGFjv7Rye3IVCSr-29" edge="1">
          <mxGeometry relative="1" as="geometry" />
        </mxCell>
        <mxCell id="ZStzPt_jmqe4mK9C0tq1-121" style="edgeStyle=orthogonalEdgeStyle;rounded=0;orthogonalLoop=1;jettySize=auto;html=1;entryX=1;entryY=0.5;entryDx=0;entryDy=0;" parent="WIyWlLk6GJQsqaUBKTNV-1" source="ZAd-6QGFjv7Rye3IVCSr-22" target="ZStzPt_jmqe4mK9C0tq1-98" edge="1">
          <mxGeometry relative="1" as="geometry">
            <Array as="points">
              <mxPoint x="530" y="590" />
            </Array>
          </mxGeometry>
        </mxCell>
        <mxCell id="ZAd-6QGFjv7Rye3IVCSr-22" value="Ack erhalten?" style="rhombus;whiteSpace=wrap;html=1;shadow=0;fontFamily=Helvetica;fontSize=12;align=center;strokeWidth=1;spacing=6;spacingTop=-4;" parent="WIyWlLk6GJQsqaUBKTNV-1" vertex="1">
          <mxGeometry x="480" y="418" width="100" height="80" as="geometry" />
        </mxCell>
        <mxCell id="ZAd-6QGFjv7Rye3IVCSr-33" style="edgeStyle=orthogonalEdgeStyle;rounded=0;orthogonalLoop=1;jettySize=auto;html=1;entryX=0.5;entryY=0;entryDx=0;entryDy=0;exitX=0.5;exitY=0;exitDx=0;exitDy=0;" parent="WIyWlLk6GJQsqaUBKTNV-1" source="ZAd-6QGFjv7Rye3IVCSr-29" target="ZAd-6QGFjv7Rye3IVCSr-22" edge="1">
          <mxGeometry relative="1" as="geometry">
            <Array as="points">
              <mxPoint x="690" y="390" />
              <mxPoint x="530" y="390" />
            </Array>
          </mxGeometry>
        </mxCell>
        <mxCell id="ZAd-6QGFjv7Rye3IVCSr-29" value="10 Sek Wait&lt;br&gt;LED blin&lt;span style=&quot;background-color: initial;&quot;&gt;kt + Retry&lt;/span&gt;" style="rounded=1;whiteSpace=wrap;html=1;fontSize=12;glass=0;strokeWidth=1;shadow=0;" parent="WIyWlLk6GJQsqaUBKTNV-1" vertex="1">
          <mxGeometry x="630" y="438" width="120" height="40" as="geometry" />
        </mxCell>
        <mxCell id="ZAd-6QGFjv7Rye3IVCSr-31" value="nein" style="text;html=1;align=center;verticalAlign=middle;whiteSpace=wrap;rounded=0;" parent="WIyWlLk6GJQsqaUBKTNV-1" vertex="1">
          <mxGeometry x="570" y="423" width="60" height="30" as="geometry" />
        </mxCell>
        <mxCell id="ZAd-6QGFjv7Rye3IVCSr-32" value="ja" style="text;html=1;align=center;verticalAlign=middle;whiteSpace=wrap;rounded=0;" parent="WIyWlLk6GJQsqaUBKTNV-1" vertex="1">
          <mxGeometry x="474" y="498" width="60" height="30" as="geometry" />
        </mxCell>
        <mxCell id="ZAd-6QGFjv7Rye3IVCSr-34" value="erfolgreich" style="text;html=1;align=center;verticalAlign=middle;whiteSpace=wrap;rounded=0;" parent="WIyWlLk6GJQsqaUBKTNV-1" vertex="1">
          <mxGeometry x="230" y="72" width="60" height="30" as="geometry" />
        </mxCell>
        <mxCell id="0V_6ufcK63HUyqijZQsY-9" style="edgeStyle=orthogonalEdgeStyle;rounded=0;orthogonalLoop=1;jettySize=auto;html=1;entryX=0.5;entryY=0;entryDx=0;entryDy=0;" parent="WIyWlLk6GJQsqaUBKTNV-1" target="ZAd-6QGFjv7Rye3IVCSr-10" edge="1">
          <mxGeometry relative="1" as="geometry">
            <mxPoint x="220.00000000000045" y="221.99999999999955" as="sourcePoint" />
          </mxGeometry>
        </mxCell>
        <mxCell id="ZStzPt_jmqe4mK9C0tq1-54" style="edgeStyle=orthogonalEdgeStyle;rounded=0;orthogonalLoop=1;jettySize=auto;html=1;entryX=0.75;entryY=0;entryDx=0;entryDy=0;" parent="WIyWlLk6GJQsqaUBKTNV-1" source="ZStzPt_jmqe4mK9C0tq1-56" target="ZStzPt_jmqe4mK9C0tq1-62" edge="1">
          <mxGeometry relative="1" as="geometry" />
        </mxCell>
        <mxCell id="ZStzPt_jmqe4mK9C0tq1-55" style="edgeStyle=orthogonalEdgeStyle;rounded=0;orthogonalLoop=1;jettySize=auto;html=1;entryX=0.5;entryY=0;entryDx=0;entryDy=0;" parent="WIyWlLk6GJQsqaUBKTNV-1" source="ZStzPt_jmqe4mK9C0tq1-56" target="ZStzPt_jmqe4mK9C0tq1-91" edge="1">
          <mxGeometry relative="1" as="geometry" />
        </mxCell>
        <mxCell id="ZStzPt_jmqe4mK9C0tq1-56" value="Überprüfen + &lt;br&gt;Werte Validierung&lt;br&gt;Hazard 2" style="rhombus;whiteSpace=wrap;html=1;shadow=0;fontFamily=Helvetica;fontSize=12;align=center;strokeWidth=1;spacing=6;spacingTop=-4;" parent="WIyWlLk6GJQsqaUBKTNV-1" vertex="1">
          <mxGeometry x="150.08999999999997" y="680" width="140" height="100" as="geometry" />
        </mxCell>
        <mxCell id="ZStzPt_jmqe4mK9C0tq1-57" value="OK" style="text;html=1;align=center;verticalAlign=middle;whiteSpace=wrap;rounded=0;" parent="WIyWlLk6GJQsqaUBKTNV-1" vertex="1">
          <mxGeometry x="220.08999999999997" y="780" width="60" height="30" as="geometry" />
        </mxCell>
        <mxCell id="ZStzPt_jmqe4mK9C0tq1-59" style="edgeStyle=orthogonalEdgeStyle;rounded=0;orthogonalLoop=1;jettySize=auto;html=1;entryX=0.5;entryY=0;entryDx=0;entryDy=0;" parent="WIyWlLk6GJQsqaUBKTNV-1" source="ZStzPt_jmqe4mK9C0tq1-60" target="ZStzPt_jmqe4mK9C0tq1-67" edge="1">
          <mxGeometry relative="1" as="geometry" />
        </mxCell>
        <mxCell id="ZStzPt_jmqe4mK9C0tq1-108" style="edgeStyle=orthogonalEdgeStyle;rounded=0;orthogonalLoop=1;jettySize=auto;html=1;entryX=1;entryY=0.5;entryDx=0;entryDy=0;" parent="WIyWlLk6GJQsqaUBKTNV-1" source="ZStzPt_jmqe4mK9C0tq1-60" target="ZStzPt_jmqe4mK9C0tq1-107" edge="1">
          <mxGeometry relative="1" as="geometry" />
        </mxCell>
        <mxCell id="ZStzPt_jmqe4mK9C0tq1-60" value="&lt;span style=&quot;color: rgb(0, 0, 0); font-family: Helvetica; font-size: 12px; font-style: normal; font-variant-ligatures: normal; font-variant-caps: normal; font-weight: 400; letter-spacing: normal; orphans: 2; text-align: center; text-indent: 0px; text-transform: none; widows: 2; word-spacing: 0px; -webkit-text-stroke-width: 0px; white-space: normal; background-color: rgb(251, 251, 251); text-decoration-thickness: initial; text-decoration-style: initial; text-decoration-color: initial; display: inline !important; float: none;&quot;&gt;HIGH-Counter = 0&lt;br&gt;Alarm-State?&lt;/span&gt;" style="rhombus;whiteSpace=wrap;html=1;shadow=0;fontFamily=Helvetica;fontSize=12;align=center;strokeWidth=1;spacing=6;spacingTop=-4;" parent="WIyWlLk6GJQsqaUBKTNV-1" vertex="1">
          <mxGeometry x="150.08999999999997" y="959" width="140" height="100" as="geometry" />
        </mxCell>
        <mxCell id="ZStzPt_jmqe4mK9C0tq1-117" style="edgeStyle=orthogonalEdgeStyle;rounded=0;orthogonalLoop=1;jettySize=auto;html=1;entryX=0;entryY=0.5;entryDx=0;entryDy=0;" parent="WIyWlLk6GJQsqaUBKTNV-1" source="ZStzPt_jmqe4mK9C0tq1-62" target="ZAd-6QGFjv7Rye3IVCSr-12" edge="1">
          <mxGeometry relative="1" as="geometry">
            <Array as="points">
              <mxPoint x="20" y="358" />
            </Array>
          </mxGeometry>
        </mxCell>
        <mxCell id="ZStzPt_jmqe4mK9C0tq1-62" value="10 Sek Wait" style="rounded=1;whiteSpace=wrap;html=1;fontSize=12;glass=0;strokeWidth=1;shadow=0;" parent="WIyWlLk6GJQsqaUBKTNV-1" vertex="1">
          <mxGeometry x="-39.91" y="820" width="120" height="40" as="geometry" />
        </mxCell>
        <mxCell id="ZStzPt_jmqe4mK9C0tq1-63" value="0" style="text;html=1;align=center;verticalAlign=middle;whiteSpace=wrap;rounded=0;" parent="WIyWlLk6GJQsqaUBKTNV-1" vertex="1">
          <mxGeometry x="90.09" y="970" width="60" height="30" as="geometry" />
        </mxCell>
        <mxCell id="ZStzPt_jmqe4mK9C0tq1-64" value="1" style="text;html=1;align=center;verticalAlign=middle;whiteSpace=wrap;rounded=0;" parent="WIyWlLk6GJQsqaUBKTNV-1" vertex="1">
          <mxGeometry x="223.08999999999997" y="1065" width="60" height="30" as="geometry" />
        </mxCell>
        <mxCell id="ZStzPt_jmqe4mK9C0tq1-66" style="edgeStyle=orthogonalEdgeStyle;rounded=0;orthogonalLoop=1;jettySize=auto;html=1;entryX=0.5;entryY=0;entryDx=0;entryDy=0;" parent="WIyWlLk6GJQsqaUBKTNV-1" source="ZStzPt_jmqe4mK9C0tq1-67" target="ZStzPt_jmqe4mK9C0tq1-70" edge="1">
          <mxGeometry relative="1" as="geometry">
            <mxPoint x="220.08999999999997" y="1269" as="targetPoint" />
          </mxGeometry>
        </mxCell>
        <mxCell id="ZStzPt_jmqe4mK9C0tq1-110" style="edgeStyle=orthogonalEdgeStyle;rounded=0;orthogonalLoop=1;jettySize=auto;html=1;entryX=0.5;entryY=1;entryDx=0;entryDy=0;" parent="WIyWlLk6GJQsqaUBKTNV-1" source="ZStzPt_jmqe4mK9C0tq1-67" target="ZStzPt_jmqe4mK9C0tq1-107" edge="1">
          <mxGeometry relative="1" as="geometry" />
        </mxCell>
        <mxCell id="ZStzPt_jmqe4mK9C0tq1-67" value="&lt;span style=&quot;color: rgb(0, 0, 0); font-family: Helvetica; font-size: 12px; font-style: normal; font-variant-ligatures: normal; font-variant-caps: normal; font-weight: 400; letter-spacing: normal; orphans: 2; text-align: center; text-indent: 0px; text-transform: none; widows: 2; word-spacing: 0px; -webkit-text-stroke-width: 0px; white-space: normal; background-color: rgb(251, 251, 251); text-decoration-thickness: initial; text-decoration-style: initial; text-decoration-color: initial; display: inline !important; float: none;&quot;&gt;LOW-Counter+=1&lt;/span&gt;&lt;div&gt;&lt;span style=&quot;color: rgb(0, 0, 0); font-family: Helvetica; font-size: 12px; font-style: normal; font-variant-ligatures: normal; font-variant-caps: normal; font-weight: 400; letter-spacing: normal; orphans: 2; text-align: center; text-indent: 0px; text-transform: none; widows: 2; word-spacing: 0px; -webkit-text-stroke-width: 0px; white-space: normal; background-color: rgb(251, 251, 251); text-decoration-thickness: initial; text-decoration-style: initial; text-decoration-color: initial; display: inline !important; float: none;&quot;&gt;LOW-Counter?&lt;br&gt;&lt;/span&gt;&lt;/div&gt;" style="rhombus;whiteSpace=wrap;html=1;shadow=0;fontFamily=Helvetica;fontSize=12;align=center;strokeWidth=1;spacing=6;spacingTop=-4;" parent="WIyWlLk6GJQsqaUBKTNV-1" vertex="1">
          <mxGeometry x="150.08999999999997" y="1099" width="140" height="100" as="geometry" />
        </mxCell>
        <mxCell id="ZStzPt_jmqe4mK9C0tq1-68" value="&amp;lt;10" style="text;html=1;align=center;verticalAlign=middle;whiteSpace=wrap;rounded=0;" parent="WIyWlLk6GJQsqaUBKTNV-1" vertex="1">
          <mxGeometry x="90.09" y="1116" width="60" height="30" as="geometry" />
        </mxCell>
        <mxCell id="ZStzPt_jmqe4mK9C0tq1-94" style="edgeStyle=orthogonalEdgeStyle;rounded=0;orthogonalLoop=1;jettySize=auto;html=1;entryX=1;entryY=0.5;entryDx=0;entryDy=0;" parent="WIyWlLk6GJQsqaUBKTNV-1" target="ZStzPt_jmqe4mK9C0tq1-95" edge="1">
          <mxGeometry relative="1" as="geometry">
            <mxPoint x="110.09" y="1299" as="targetPoint" />
            <mxPoint x="150.08999999999997" y="1299" as="sourcePoint" />
          </mxGeometry>
        </mxCell>
        <mxCell id="ZStzPt_jmqe4mK9C0tq1-70" value="Alarm-State=0&lt;br&gt;LOW-Counter=0" style="rounded=1;whiteSpace=wrap;html=1;fontSize=12;glass=0;strokeWidth=1;shadow=0;" parent="WIyWlLk6GJQsqaUBKTNV-1" vertex="1">
          <mxGeometry x="150.09" y="1269" width="140" height="60" as="geometry" />
        </mxCell>
        <mxCell id="ZStzPt_jmqe4mK9C0tq1-74" value="Fehler" style="text;html=1;align=center;verticalAlign=middle;whiteSpace=wrap;rounded=0;" parent="WIyWlLk6GJQsqaUBKTNV-1" vertex="1">
          <mxGeometry x="90.09" y="695" width="60" height="30" as="geometry" />
        </mxCell>
        <mxCell id="ZStzPt_jmqe4mK9C0tq1-76" style="edgeStyle=orthogonalEdgeStyle;rounded=0;orthogonalLoop=1;jettySize=auto;html=1;entryX=0.5;entryY=0;entryDx=0;entryDy=0;" parent="WIyWlLk6GJQsqaUBKTNV-1" source="ZStzPt_jmqe4mK9C0tq1-78" target="ZStzPt_jmqe4mK9C0tq1-82" edge="1">
          <mxGeometry relative="1" as="geometry" />
        </mxCell>
        <mxCell id="ZStzPt_jmqe4mK9C0tq1-77" style="edgeStyle=orthogonalEdgeStyle;rounded=0;orthogonalLoop=1;jettySize=auto;html=1;entryX=0;entryY=0.5;entryDx=0;entryDy=0;" parent="WIyWlLk6GJQsqaUBKTNV-1" source="ZStzPt_jmqe4mK9C0tq1-78" target="ZStzPt_jmqe4mK9C0tq1-111" edge="1">
          <mxGeometry relative="1" as="geometry" />
        </mxCell>
        <mxCell id="ZStzPt_jmqe4mK9C0tq1-78" value="Alarm-State?" style="rhombus;whiteSpace=wrap;html=1;shadow=0;fontFamily=Helvetica;fontSize=12;align=center;strokeWidth=1;spacing=6;spacingTop=-4;" parent="WIyWlLk6GJQsqaUBKTNV-1" vertex="1">
          <mxGeometry x="379.09" y="820" width="140" height="100" as="geometry" />
        </mxCell>
        <mxCell id="ZStzPt_jmqe4mK9C0tq1-79" value="1" style="text;html=1;align=center;verticalAlign=middle;whiteSpace=wrap;rounded=0;" parent="WIyWlLk6GJQsqaUBKTNV-1" vertex="1">
          <mxGeometry x="515.09" y="840" width="60" height="30" as="geometry" />
        </mxCell>
        <mxCell id="ZStzPt_jmqe4mK9C0tq1-80" style="edgeStyle=orthogonalEdgeStyle;rounded=0;orthogonalLoop=1;jettySize=auto;html=1;entryX=0.5;entryY=1;entryDx=0;entryDy=0;" parent="WIyWlLk6GJQsqaUBKTNV-1" source="ZStzPt_jmqe4mK9C0tq1-111" target="ZStzPt_jmqe4mK9C0tq1-84" edge="1">
          <mxGeometry relative="1" as="geometry" />
        </mxCell>
        <mxCell id="ZStzPt_jmqe4mK9C0tq1-81" style="edgeStyle=orthogonalEdgeStyle;rounded=0;orthogonalLoop=1;jettySize=auto;html=1;entryX=0.5;entryY=0;entryDx=0;entryDy=0;" parent="WIyWlLk6GJQsqaUBKTNV-1" source="ZStzPt_jmqe4mK9C0tq1-82" target="ZStzPt_jmqe4mK9C0tq1-87" edge="1">
          <mxGeometry relative="1" as="geometry" />
        </mxCell>
        <mxCell id="ZStzPt_jmqe4mK9C0tq1-113" style="edgeStyle=orthogonalEdgeStyle;rounded=0;orthogonalLoop=1;jettySize=auto;html=1;entryX=0.5;entryY=1;entryDx=0;entryDy=0;" parent="WIyWlLk6GJQsqaUBKTNV-1" source="ZStzPt_jmqe4mK9C0tq1-82" target="ZStzPt_jmqe4mK9C0tq1-111" edge="1">
          <mxGeometry relative="1" as="geometry" />
        </mxCell>
        <mxCell id="ZStzPt_jmqe4mK9C0tq1-82" value="&lt;span style=&quot;color: rgb(0, 0, 0); font-family: Helvetica; font-size: 12px; font-style: normal; font-variant-ligatures: normal; font-variant-caps: normal; font-weight: 400; letter-spacing: normal; orphans: 2; text-align: center; text-indent: 0px; text-transform: none; widows: 2; word-spacing: 0px; -webkit-text-stroke-width: 0px; white-space: normal; background-color: rgb(251, 251, 251); text-decoration-thickness: initial; text-decoration-style: initial; text-decoration-color: initial; display: inline !important; float: none;&quot;&gt;HIGH-Counter+=1&lt;/span&gt;&lt;div&gt;&lt;span style=&quot;color: rgb(0, 0, 0); font-family: Helvetica; font-size: 12px; font-style: normal; font-variant-ligatures: normal; font-variant-caps: normal; font-weight: 400; letter-spacing: normal; orphans: 2; text-align: center; text-indent: 0px; text-transform: none; widows: 2; word-spacing: 0px; -webkit-text-stroke-width: 0px; white-space: normal; background-color: rgb(251, 251, 251); text-decoration-thickness: initial; text-decoration-style: initial; text-decoration-color: initial; display: inline !important; float: none;&quot;&gt;LOW-Counter=0&lt;/span&gt;&lt;/div&gt;&lt;div&gt;&lt;span style=&quot;color: rgb(0, 0, 0); font-family: Helvetica; font-size: 12px; font-style: normal; font-variant-ligatures: normal; font-variant-caps: normal; font-weight: 400; letter-spacing: normal; orphans: 2; text-align: center; text-indent: 0px; text-transform: none; widows: 2; word-spacing: 0px; -webkit-text-stroke-width: 0px; white-space: normal; background-color: rgb(251, 251, 251); text-decoration-thickness: initial; text-decoration-style: initial; text-decoration-color: initial; display: inline !important; float: none;&quot;&gt;HIGH-Counter?&lt;/span&gt;&lt;/div&gt;" style="rhombus;whiteSpace=wrap;html=1;shadow=0;fontFamily=Helvetica;fontSize=12;align=center;strokeWidth=1;spacing=6;spacingTop=-4;" parent="WIyWlLk6GJQsqaUBKTNV-1" vertex="1">
          <mxGeometry x="379.09" y="960" width="140" height="100" as="geometry" />
        </mxCell>
        <mxCell id="ZStzPt_jmqe4mK9C0tq1-83" value="0" style="text;html=1;align=center;verticalAlign=middle;whiteSpace=wrap;rounded=0;" parent="WIyWlLk6GJQsqaUBKTNV-1" vertex="1">
          <mxGeometry x="445.09" y="920" width="60" height="30" as="geometry" />
        </mxCell>
        <mxCell id="ZStzPt_jmqe4mK9C0tq1-118" style="edgeStyle=orthogonalEdgeStyle;rounded=0;orthogonalLoop=1;jettySize=auto;html=1;entryX=1;entryY=0.25;entryDx=0;entryDy=0;" parent="WIyWlLk6GJQsqaUBKTNV-1" source="ZStzPt_jmqe4mK9C0tq1-84" target="ZAd-6QGFjv7Rye3IVCSr-12" edge="1">
          <mxGeometry relative="1" as="geometry">
            <Array as="points">
              <mxPoint x="625" y="700" />
              <mxPoint x="770" y="700" />
              <mxPoint x="770" y="348" />
            </Array>
          </mxGeometry>
        </mxCell>
        <mxCell id="ZStzPt_jmqe4mK9C0tq1-84" value="10 Sek Wait" style="rounded=1;whiteSpace=wrap;html=1;fontSize=12;glass=0;strokeWidth=1;shadow=0;" parent="WIyWlLk6GJQsqaUBKTNV-1" vertex="1">
          <mxGeometry x="565.09" y="725" width="120" height="40" as="geometry" />
        </mxCell>
        <mxCell id="ZStzPt_jmqe4mK9C0tq1-85" value="&amp;lt;10" style="text;html=1;align=center;verticalAlign=middle;whiteSpace=wrap;rounded=0;" parent="WIyWlLk6GJQsqaUBKTNV-1" vertex="1">
          <mxGeometry x="505.09" y="980" width="60" height="30" as="geometry" />
        </mxCell>
        <mxCell id="ZStzPt_jmqe4mK9C0tq1-103" style="edgeStyle=orthogonalEdgeStyle;rounded=0;orthogonalLoop=1;jettySize=auto;html=1;entryX=0;entryY=0.5;entryDx=0;entryDy=0;" parent="WIyWlLk6GJQsqaUBKTNV-1" source="ZStzPt_jmqe4mK9C0tq1-87" target="ZStzPt_jmqe4mK9C0tq1-102" edge="1">
          <mxGeometry relative="1" as="geometry" />
        </mxCell>
        <mxCell id="ZStzPt_jmqe4mK9C0tq1-87" value="Alarm-State=1&lt;br&gt;HIGH-Counter=0" style="rounded=1;whiteSpace=wrap;html=1;fontSize=12;glass=0;strokeWidth=1;shadow=0;" parent="WIyWlLk6GJQsqaUBKTNV-1" vertex="1">
          <mxGeometry x="379.09" y="1120" width="140" height="60" as="geometry" />
        </mxCell>
        <mxCell id="ZStzPt_jmqe4mK9C0tq1-88" value="&amp;gt;10" style="text;html=1;align=center;verticalAlign=middle;whiteSpace=wrap;rounded=0;" parent="WIyWlLk6GJQsqaUBKTNV-1" vertex="1">
          <mxGeometry x="460.09" y="1070" width="60" height="30" as="geometry" />
        </mxCell>
        <mxCell id="ZStzPt_jmqe4mK9C0tq1-89" style="edgeStyle=orthogonalEdgeStyle;rounded=0;orthogonalLoop=1;jettySize=auto;html=1;entryX=0.5;entryY=0;entryDx=0;entryDy=0;" parent="WIyWlLk6GJQsqaUBKTNV-1" source="ZStzPt_jmqe4mK9C0tq1-91" target="ZStzPt_jmqe4mK9C0tq1-60" edge="1">
          <mxGeometry relative="1" as="geometry" />
        </mxCell>
        <mxCell id="ZStzPt_jmqe4mK9C0tq1-90" style="edgeStyle=orthogonalEdgeStyle;rounded=0;orthogonalLoop=1;jettySize=auto;html=1;entryX=0;entryY=0.5;entryDx=0;entryDy=0;" parent="WIyWlLk6GJQsqaUBKTNV-1" source="ZStzPt_jmqe4mK9C0tq1-91" target="ZStzPt_jmqe4mK9C0tq1-78" edge="1">
          <mxGeometry relative="1" as="geometry" />
        </mxCell>
        <mxCell id="ZStzPt_jmqe4mK9C0tq1-91" value="CO2 Wert unter&lt;div&gt;Threshold?&lt;/div&gt;" style="rhombus;whiteSpace=wrap;html=1;shadow=0;fontFamily=Helvetica;fontSize=12;align=center;strokeWidth=1;spacing=6;spacingTop=-4;" parent="WIyWlLk6GJQsqaUBKTNV-1" vertex="1">
          <mxGeometry x="150.08999999999997" y="820" width="140" height="100" as="geometry" />
        </mxCell>
        <mxCell id="ZStzPt_jmqe4mK9C0tq1-92" value="JA" style="text;html=1;align=center;verticalAlign=middle;whiteSpace=wrap;rounded=0;" parent="WIyWlLk6GJQsqaUBKTNV-1" vertex="1">
          <mxGeometry x="223.08999999999997" y="920" width="60" height="30" as="geometry" />
        </mxCell>
        <mxCell id="ZStzPt_jmqe4mK9C0tq1-93" value="NEIN" style="text;html=1;align=center;verticalAlign=middle;whiteSpace=wrap;rounded=0;" parent="WIyWlLk6GJQsqaUBKTNV-1" vertex="1">
          <mxGeometry x="295.09" y="844" width="60" height="30" as="geometry" />
        </mxCell>
        <mxCell id="ZStzPt_jmqe4mK9C0tq1-96" style="edgeStyle=orthogonalEdgeStyle;rounded=0;orthogonalLoop=1;jettySize=auto;html=1;entryX=0;entryY=0.5;entryDx=0;entryDy=0;" parent="WIyWlLk6GJQsqaUBKTNV-1" source="ZStzPt_jmqe4mK9C0tq1-95" target="ZStzPt_jmqe4mK9C0tq1-62" edge="1">
          <mxGeometry relative="1" as="geometry">
            <Array as="points">
              <mxPoint x="-59.91" y="1299" />
              <mxPoint x="-59.91" y="840" />
            </Array>
          </mxGeometry>
        </mxCell>
        <mxCell id="ZStzPt_jmqe4mK9C0tq1-95" value="Status set CLOSE" style="rounded=1;whiteSpace=wrap;html=1;fontSize=12;glass=0;strokeWidth=1;shadow=0;" parent="WIyWlLk6GJQsqaUBKTNV-1" vertex="1">
          <mxGeometry x="-39.91" y="1279" width="120" height="40" as="geometry" />
        </mxCell>
        <mxCell id="ZStzPt_jmqe4mK9C0tq1-100" style="edgeStyle=orthogonalEdgeStyle;rounded=0;orthogonalLoop=1;jettySize=auto;html=1;entryX=0.5;entryY=0;entryDx=0;entryDy=0;" parent="WIyWlLk6GJQsqaUBKTNV-1" source="ZStzPt_jmqe4mK9C0tq1-98" target="ZStzPt_jmqe4mK9C0tq1-56" edge="1">
          <mxGeometry relative="1" as="geometry" />
        </mxCell>
        <mxCell id="ZStzPt_jmqe4mK9C0tq1-98" value="CO2 Wert einlesen" style="rhombus;whiteSpace=wrap;html=1;shadow=0;fontFamily=Helvetica;fontSize=12;align=center;strokeWidth=1;spacing=6;spacingTop=-4;" parent="WIyWlLk6GJQsqaUBKTNV-1" vertex="1">
          <mxGeometry x="150.08999999999997" y="540" width="140" height="100" as="geometry" />
        </mxCell>
        <mxCell id="ZStzPt_jmqe4mK9C0tq1-104" style="edgeStyle=orthogonalEdgeStyle;rounded=0;orthogonalLoop=1;jettySize=auto;html=1;entryX=1;entryY=0.5;entryDx=0;entryDy=0;" parent="WIyWlLk6GJQsqaUBKTNV-1" source="ZStzPt_jmqe4mK9C0tq1-102" target="ZStzPt_jmqe4mK9C0tq1-84" edge="1">
          <mxGeometry relative="1" as="geometry">
            <mxPoint x="705.09" y="745" as="targetPoint" />
            <Array as="points">
              <mxPoint x="735.09" y="1150" />
              <mxPoint x="735.09" y="745" />
            </Array>
          </mxGeometry>
        </mxCell>
        <mxCell id="ZStzPt_jmqe4mK9C0tq1-102" value="Status set OPEN" style="rounded=1;whiteSpace=wrap;html=1;fontSize=12;glass=0;strokeWidth=1;shadow=0;" parent="WIyWlLk6GJQsqaUBKTNV-1" vertex="1">
          <mxGeometry x="565.09" y="1130" width="120" height="40" as="geometry" />
        </mxCell>
        <mxCell id="ZStzPt_jmqe4mK9C0tq1-109" style="edgeStyle=orthogonalEdgeStyle;rounded=0;orthogonalLoop=1;jettySize=auto;html=1;entryX=0.5;entryY=1;entryDx=0;entryDy=0;" parent="WIyWlLk6GJQsqaUBKTNV-1" source="ZStzPt_jmqe4mK9C0tq1-107" target="ZStzPt_jmqe4mK9C0tq1-62" edge="1">
          <mxGeometry relative="1" as="geometry" />
        </mxCell>
        <mxCell id="ZStzPt_jmqe4mK9C0tq1-107" value="Status set IDLE" style="rounded=1;whiteSpace=wrap;html=1;fontSize=12;glass=0;strokeWidth=1;shadow=0;" parent="WIyWlLk6GJQsqaUBKTNV-1" vertex="1">
          <mxGeometry x="-39.91" y="989" width="120" height="40" as="geometry" />
        </mxCell>
        <mxCell id="ZStzPt_jmqe4mK9C0tq1-111" value="Status set IDLE" style="rounded=1;whiteSpace=wrap;html=1;fontSize=12;glass=0;strokeWidth=1;shadow=0;" parent="WIyWlLk6GJQsqaUBKTNV-1" vertex="1">
          <mxGeometry x="565.09" y="850" width="120" height="40" as="geometry" />
        </mxCell>
        <mxCell id="ZStzPt_jmqe4mK9C0tq1-122" value="&amp;gt;10" style="text;html=1;align=center;verticalAlign=middle;whiteSpace=wrap;rounded=0;" parent="WIyWlLk6GJQsqaUBKTNV-1" vertex="1">
          <mxGeometry x="226" y="1210" width="60" height="30" as="geometry" />
        </mxCell>
      </root>
    </mxGraphModel>
  </diagram>
</mxfile>
